<?xml version="1.0" encoding="UTF-8"?>
<svg version="1.1" viewBox="0 0 226.17 40" width="226" height="40" xmlns="http://www.w3.org/2000/svg">
	<g fill="#999">
		<path d="m8.383 1.769a7.466 7.466 0 0 1 7.686 7.642 7.341 7.341 0 0 1-2.2 5.447 7.473 7.473 0 0 1-5.5 2.2h-6.5v9.367h-1.869v-24.656zm0 13.492a5.63 5.63 0 0 0 4.177-1.651 5.718 5.718 0 0 0 1.637-4.2 5.77 5.77 0 0 0-1.637-4.228 5.63 5.63 0 0 0-4.177-1.651h-6.518v11.745z"/>
		<path d="m40.485 23.101a12.23 12.23 0 0 1-9.022 3.722 12.23 12.23 0 0 1-9.014-3.722 12.281 12.281 0 0 1-3.67-9 12.3 12.3 0 0 1 3.67-9.007 12.252 12.252 0 0 1 9.014-3.714 12.252 12.252 0 0 1 9.022 3.714 12.3 12.3 0 0 1 3.67 9.007 12.281 12.281 0 0 1-3.67 9zm-16.715-1.27a10.4 10.4 0 0 0 7.693 3.193 10.4 10.4 0 0 0 7.7-3.193 10.556 10.556 0 0 0 3.157-7.73 10.585 10.585 0 0 0-3.157-7.737 10.424 10.424 0 0 0-7.7-3.186 10.424 10.424 0 0 0-7.693 3.186 10.585 10.585 0 0 0-3.157 7.737 10.556 10.556 0 0 0 3.157 7.73z"/>
		<path d="m55.218 26.823a10.321 10.321 0 0 1-5.8-1.571 7.737 7.737 0 0 1-3.223-4.243l1.622-0.954a6.5 6.5 0 0 0 2.555 3.626 8.148 8.148 0 0 0 4.845 1.343 6.856 6.856 0 0 0 4.6-1.38 4.441 4.441 0 0 0 1.6-3.553 3.612 3.612 0 0 0-1.551-3.142 18.785 18.785 0 0 0-4.81-2.148l-1.74-0.631-1.571-0.573a8.611 8.611 0 0 1-1.52-0.69c-0.33-0.213-0.734-0.5-1.182-0.852a3.868 3.868 0 0 1-1.02-1.042 7.055 7.055 0 0 1-0.557-1.312 5.2 5.2 0 0 1-0.25-1.674 6.012 6.012 0 0 1 2.129-4.808 7.95 7.95 0 0 1 5.344-1.843 8.346 8.346 0 0 1 4.933 1.468 8.53 8.53 0 0 1 3 3.714l-1.586 0.881a6.35 6.35 0 0 0-6.342-4.265 5.873 5.873 0 0 0-4.037 1.336 4.36 4.36 0 0 0-1.52 3.421 3.391 3.391 0 0 0 1.409 2.988 18.682 18.682 0 0 0 4.617 2.048l3.179 1.182a14.418 14.418 0 0 1 2.467 1.263 5.278 5.278 0 0 1 1.916 1.975 5.7 5.7 0 0 1 0.6 2.665 6.086 6.086 0 0 1-2.2 4.918 8.882 8.882 0 0 1-5.907 1.853z"/>
		<path d="m81.82 1.769v1.762h-7.752v22.9h-1.908v-22.9h-7.752v-1.762z"/>
		<path d="m95.239 26.926a12.531 12.531 0 0 1-12.832-12.824 12.516 12.516 0 0 1 12.832-12.824 12.648 12.648 0 0 1 6.13 1.527 11.694 11.694 0 0 1 4.4 4.177l-4.867 2.819a5.528 5.528 0 0 0-2.327-2.2 7.157 7.157 0 0 0-3.377-0.793 6.974 6.974 0 0 0-5.2 2 7.289 7.289 0 0 0-1.96 5.322 7.3 7.3 0 0 0 1.96 5.322 6.966 6.966 0 0 0 5.234 2 7.216 7.216 0 0 0 3.4-0.807 5.484 5.484 0 0 0 2.305-2.2l4.867 2.819a11.334 11.334 0 0 1-4.4 4.177 12.714 12.714 0 0 1-6.165 1.485z"/>
		<path d="m145.83 1.769a11.437 11.437 0 0 1 8.545 3.538 12.142 12.142 0 0 1 3.435 8.809 12.112 12.112 0 0 1-3.435 8.809 11.415 11.415 0 0 1-8.545 3.5h-9.866v-24.656zm0 19.24a6.284 6.284 0 0 0 4.735-1.887 6.922 6.922 0 0 0 1.813-5.021 6.922 6.922 0 0 0-1.813-5.021 6.284 6.284 0 0 0-4.735-1.887h-4.228v13.816z"/>
		<path d="m166.27 21.009h9.866v5.418h-15.5v-24.658h15.328v5.425h-9.69v4.089h8.809v5.351h-8.809z"/>
		<path d="m184.13 25.942a3.34 3.34 0 1 1 0.735-3.645 3.34 3.34 0 0 1-0.735 3.645z"/>
		<path d="m202.21 1.769h5.638v24.658h-4.228l-9.543-13.39v13.39h-5.638v-24.658h4.228l9.543 13.39z"/>
		<path d="m217.36 21.009h8.809v5.418h-14.447v-24.658h5.638z"/>
		<path d="m131.87 16.253-11.269 23.747-11.268-23.747a9.888 9.888 0 0 1-0.771-4.214 12.039 12.039 0 1 1 24.078 0 9.888 9.888 0 0 1-0.771 4.214zm-11.269-10.234a6.019 6.019 0 1 0 6.019 6.019 6.019 6.019 0 0 0-6.019-6.019z"/>
	</g>
</svg>